<mxfile host="app.diagrams.net" modified="2024-02-28T16:51:37.707Z" agent="Mozilla/5.0 (Windows NT 10.0; Win64; x64) AppleWebKit/537.36 (KHTML, like Gecko) Chrome/121.0.0.0 Safari/537.36" version="23.1.4" etag="sHGz037YY-oqLSoo2yqZ" type="github">
  <diagram name="Page-1" id="LjOBU6DgdXFUK-svc16I">
    <mxGraphModel>
      <root>
        <mxCell id="0" />
        <mxCell id="1" parent="0" />
      </root>
    </mxGraphModel>
  </diagram>
</mxfile>
